<?xml version="1.0" encoding="utf-8"?>
<svg viewBox="4.409 -77.601 1144.621 939.153" xmlns="http://www.w3.org/2000/svg">
  <defs>
    <linearGradient id="b5ddeed3-b78d-400e-805e-1392ba69a239" x1="283.68" y1="848.61" x2="283.68" y2="438.71" gradientTransform="matrix(-1, 0, 0, 1, 1182.219279, -60.350086)" gradientUnits="userSpaceOnUse">
      <stop offset="0" stop-color="gray" stop-opacity="0.25"/>
      <stop offset="0.54" stop-color="gray" stop-opacity="0.12"/>
      <stop offset="1" stop-color="gray" stop-opacity="0.1"/>
    </linearGradient>
  </defs>
  <title>smart home</title>
  <path d="M 669.059 108.07 C 596.619 105.56 527.619 82.17 461.739 56.58 C 395.859 30.99 330.589 2.66 259.889 -10.91 C 214.409 -19.63 162.399 -20.91 125.759 3.52 C 90.489 26.98 79.099 67.52 72.979 105.07 C 68.369 133.35 65.659 163.07 78.279 189.58 C 87.049 207.95 102.619 223.4 113.389 241 C 150.839 302.26 124.389 377.79 83.769 437.59 C 64.769 465.65 42.639 492.41 27.949 522.28 C 13.259 552.15 6.459 586.36 19.309 616.82 C 32.059 647.02 62.419 669.66 95.319 685.66 C 162.129 718.06 240.859 727.34 317.629 732.59 C 487.569 744.21 658.419 739.18 828.809 734.14 C 891.869 732.27 955.199 730.38 1017.239 720.63 C 1051.679 715.22 1087.239 706.63 1112.239 685.88 C 1143.989 659.54 1151.859 614.94 1130.579 581.88 C 1094.899 526.49 996.229 512.73 971.289 453.28 C 957.559 420.56 971.659 384.11 991.609 353.76 C 1034.409 288.65 1106.149 231.54 1109.929 157.12 C 1112.529 106.01 1078.039 54.82 1024.719 30.64 C 968.819 5.29 891.319 8.48 850.079 50.44 C 807.639 93.66 733.019 110.29 669.059 108.07 Z" opacity="0.1" transform="matrix(0.999995, -0.00315, 0.00315, 0.999995, -1.135929, 1.82095)" style=""/>
  <rect x="332.4" y="134.07" width="514" height="618.97" rx="19.8" fill="#464353" transform="matrix(0.999995, -0.00315, 0.00315, 0.999995, 11.330467, -14.838293)"/>
  <rect x="376.74" y="192.74" width="425.32" height="494.09" fill="#fff" stroke="#fff" stroke-miterlimit="10" opacity="0.1" transform="matrix(0.999995, -0.00315, 0.00315, 0.999995, 11.330467, -14.838293)"/>
  <circle cx="589.4" cy="723.18" r="18.1" fill="#fff" transform="matrix(0.999995, -0.00315, 0.00315, 0.999995, 11.330414, -14.838356)"/>
  <path d="M 601.264 162.114 C 594.682 162.075 590.61 154.926 593.935 149.246 C 597.259 143.565 605.486 143.613 608.743 149.332 C 609.481 150.628 609.867 152.093 609.864 153.584 C 609.847 158.315 605.995 162.136 601.264 162.114 Z" fill="#fff" transform="matrix(0.999995, -0.00315, 0.00315, 0.999995, -0.480743, 1.894881)"/>
  <path d="M 601.264 145.514 C 607.461 145.476 611.375 152.16 608.31 157.546 C 605.245 162.931 597.499 162.979 594.367 157.632 C 593.636 156.383 593.255 154.961 593.264 153.514 C 593.297 149.109 596.859 145.547 601.264 145.514 M 601.264 144.514 C 594.297 144.514 589.943 152.056 593.427 158.089 C 596.91 164.122 605.618 164.122 609.102 158.089 C 609.904 156.699 610.323 155.12 610.314 153.514 C 610.286 148.535 606.243 144.514 601.264 144.514 Z" fill="#fff" transform="matrix(0.999995, -0.00315, 0.00315, 0.999995, -0.480743, 1.894723)"/>
  <path d="M 594.95 270.784 L 594.95 253.184 L 608.15 253.184 L 608.15 270.784 L 621.57 270.784 L 621.57 244.394 L 630.15 244.394 L 601.55 217.994 L 572.96 244.394 L 581.53 244.394 L 581.53 270.784 Z" fill="#2c9656" transform="matrix(0.999995, -0.00315, 0.00315, 0.999995, -0.766841, 1.896111)"/>
  <path d="M 453.91 353.062 L 453.91 334.062 C 453.91 330.956 450.547 329.014 447.857 330.567 C 446.609 331.288 445.84 332.62 445.84 334.062 L 445.84 353.062 C 440.3 356.168 440.201 364.106 445.66 367.35 C 451.12 370.594 458.044 366.712 458.124 360.361 C 458.162 357.34 456.545 354.54 453.91 353.062 Z M 448.48 334.062 C 448.57 333.003 449.772 332.44 450.644 333.047 C 450.98 333.282 451.195 333.653 451.23 334.062 L 451.23 338.322 L 448.48 338.322 Z" fill="#fff" stroke="#fff" stroke-miterlimit="10" transform="matrix(0.999995, -0.00315, 0.00315, 0.999995, -1.097969, 1.418838)"/>
  <rect x="493.28" y="364.08" width="240" height="2.67" fill="#2c9656" opacity="0.3" transform="matrix(0.999995, -0.00315, 0.00315, 0.999995, 11.330467, -14.838293)"/>
  <circle cx="567.39" cy="365.42" r="6.33" fill="#2c9656" transform="matrix(0.999995, -0.00315, 0.00315, 0.999995, 11.330415, -14.838325)"/>
  <rect x="493.28" y="364.08" width="74.11" height="2.67" fill="#2c9656" transform="matrix(0.999995, -0.00315, 0.00315, 0.999995, 11.330467, -14.838293)"/>
  <path d="M 451.549 445.901 C 451.456 445.161 450.814 444.615 450.069 444.641 C 449.394 444.623 448.794 445.069 448.619 445.721 L 447.159 453.661 C 447.119 453.862 447.099 454.066 447.099 454.271 C 447.099 456.581 449.599 458.024 451.599 456.869 C 452.527 456.333 453.099 455.343 453.099 454.271 C 453.096 454.025 453.062 453.78 452.999 453.541 Z M 462.909 449.311 C 462.754 449.186 462.591 449.072 462.419 448.971 L 456.499 444.891 C 456.036 444.547 455.393 444.58 454.969 444.971 C 454.588 445.307 454.52 445.874 454.809 446.291 L 459.369 451.941 C 459.457 452.074 459.558 452.198 459.669 452.311 C 460.596 453.113 461.971 453.113 462.899 452.311 C 463.802 451.515 463.802 450.108 462.899 449.311 Z M 466.909 443.481 L 461.359 443.281 C 461.012 443.226 460.685 443.457 460.619 443.801 C 460.576 444.125 460.757 444.437 461.059 444.561 L 461.059 444.561 L 466.429 446.081 C 467.209 446.251 468.079 445.891 468.079 445.081 C 468.079 444.081 467.789 443.571 466.909 443.471 Z M 439.329 444.561 C 439.631 444.437 439.812 444.125 439.769 443.801 C 439.698 443.455 439.368 443.226 439.019 443.281 L 433.479 443.481 C 432.589 443.581 432.329 444.071 432.329 445.081 C 432.329 445.881 433.179 446.251 433.949 446.081 L 439.319 444.551 Z M 443.859 444.881 L 437.939 448.951 C 437.769 449.05 437.608 449.163 437.459 449.291 C 436.556 450.088 436.556 451.495 437.459 452.291 C 438.371 453.123 439.767 453.123 440.679 452.291 C 440.798 452.186 440.903 452.065 440.989 451.931 L 445.549 446.301 C 445.838 445.884 445.769 445.317 445.389 444.981 C 444.962 444.566 444.295 444.523 443.819 444.881 Z M 450.199 418.521 C 450.199 418.521 452.799 421.521 452.799 424.051 C 452.985 426.364 451.169 428.35 448.849 428.371 C 446.484 428.366 444.587 426.415 444.649 424.051 L 444.649 423.461 C 442.222 426.41 440.899 430.112 440.909 433.931 C 440.909 441.06 448.626 445.515 454.799 441.951 C 457.664 440.297 459.429 437.24 459.429 433.931 C 459.429 427.691 456.349 420.381 450.159 418.521 Z M 449.869 439.721 C 447.835 439.744 446.166 438.115 446.139 436.081 C 446.134 434.222 447.539 432.661 449.389 432.471 C 451.472 432.131 453.369 431.069 454.749 429.471 C 455.203 430.99 455.432 432.566 455.429 434.151 C 455.429 437.222 452.94 439.711 449.869 439.711 Z" fill="#fff" stroke="#fff" stroke-miterlimit="10" transform="matrix(0.999995, -0.00315, 0.00315, 0.999995, -1.377146, 1.420315)"/>
  <rect x="493.28" y="452.65" width="240" height="2.67" fill="#2c9656" opacity="0.3" transform="matrix(0.999995, -0.00315, 0.00315, 0.999995, 11.330467, -14.838293)"/>
  <circle cx="623.39" cy="453.99" r="6.33" fill="#2c9656" transform="matrix(0.999995, -0.00315, 0.00315, 0.999995, 11.33041, -14.838329)"/>
  <rect x="493.28" y="452.65" width="130.72" height="2.67" fill="#2c9656" transform="matrix(0.999995, -0.00315, 0.00315, 0.999995, 11.330467, -14.838293)"/>
  <path d="M 444.936 540.491 C 444.941 541.439 445.708 542.206 446.656 542.211 L 454.216 542.211 C 455.163 542.206 455.93 541.439 455.936 540.491 L 455.936 538.951 L 444.936 538.951 Z M 450.436 509.211 C 443.586 509.211 438.066 514.361 438.066 520.731 C 438.095 524.59 440.084 528.169 443.346 530.231 L 443.346 533.961 C 443.378 534.906 444.171 535.645 445.116 535.611 L 455.756 535.611 C 456.7 535.645 457.493 534.906 457.526 533.961 L 457.526 530.231 C 460.794 528.174 462.788 524.593 462.816 520.731 C 462.816 514.361 457.286 509.211 450.436 509.211 Z" fill="#fff" stroke="#fff" stroke-miterlimit="10" transform="matrix(0.999995, -0.00315, 0.00315, 0.999995, -1.653755, 1.421497)"/>
  <rect x="493.28" y="540.6" width="240" height="2.67" fill="#2c9656" opacity="0.3" transform="matrix(0.999995, -0.00315, 0.00315, 0.999995, 11.330467, -14.838293)"/>
  <circle cx="685.39" cy="541.93" r="6.33" fill="#2c9656" transform="matrix(0.999995, -0.00315, 0.00315, 0.999995, 11.330405, -14.838348)"/>
  <rect x="493.28" y="540.6" width="192.72" height="2.67" fill="#2c9656" transform="matrix(0.999995, -0.00315, 0.00315, 0.999995, 11.330467, -14.838293)"/>
  <path d="M 442.453 592.911 L 442.453 612.151 L 447.953 612.151 L 447.953 628.651 L 458.953 606.651 L 453.453 606.651 L 458.953 592.911 Z" fill="#fff" stroke="#fff" stroke-miterlimit="10" transform="matrix(0.999995, -0.00315, 0.00315, 0.999995, -1.921724, 1.422745)"/>
  <rect x="493.28" y="625.67" width="240" height="2.67" fill="#2c9656" opacity="0.3" transform="matrix(0.999995, -0.00315, 0.00315, 0.999995, 11.330467, -14.838293)"/>
  <circle cx="567.39" cy="627" r="6.33" fill="#2c9656" transform="matrix(0.999995, -0.00315, 0.00315, 0.999995, 11.330415, -14.838352)"/>
  <rect x="493.28" y="625.67" width="74.11" height="2.67" fill="#2c9656" transform="matrix(0.999995, -0.00315, 0.00315, 0.999995, 11.330467, -14.838293)"/>
  <ellipse cx="344.08" cy="780.54" rx="59.47" ry="11.44" fill="#2c9656" transform="matrix(0.999995, -0.00315, 0.00315, 0.999995, 11.330436, -14.838359)"/>
  <ellipse cx="343.09" cy="775.68" rx="6.92" ry="9.06" fill="#3f3d56" transform="matrix(0.999995, -0.00315, 0.00315, 0.999995, 11.330436, -14.838359)"/>
  <ellipse cx="343.09" cy="764.6" rx="6.92" ry="9.06" fill="#3f3d56" transform="matrix(0.999995, -0.00315, 0.00315, 0.999995, 11.330436, -14.838358)"/>
  <ellipse cx="343.09" cy="753.53" rx="6.92" ry="9.06" fill="#3f3d56" transform="matrix(0.999995, -0.00315, 0.00315, 0.999995, 11.330436, -14.838358)"/>
  <ellipse cx="343.09" cy="742.45" rx="6.92" ry="9.06" fill="#3f3d56" transform="matrix(0.999995, -0.00315, 0.00315, 0.999995, 11.330436, -14.838357)"/>
  <ellipse cx="343.09" cy="731.37" rx="6.92" ry="9.06" fill="#3f3d56" transform="matrix(0.999995, -0.00315, 0.00315, 0.999995, 11.330436, -14.838357)"/>
  <ellipse cx="343.09" cy="720.29" rx="6.92" ry="9.06" fill="#3f3d56" transform="matrix(0.999995, -0.00315, 0.00315, 0.999995, 11.330436, -14.838356)"/>
  <ellipse cx="343.09" cy="709.21" rx="6.92" ry="9.06" fill="#3f3d56" transform="matrix(0.999995, -0.00315, 0.00315, 0.999995, 11.330436, -14.838356)"/>
  <path d="M 382.389 617.488 C 383.333 616.28 384.195 615.011 384.969 613.688 L 366.769 610.688 L 386.449 610.838 C 390.257 602.536 390.485 593.033 387.079 584.558 L 360.699 598.258 L 385.039 580.358 C 372.254 558.255 340.336 558.28 327.587 580.403 C 320.819 592.146 321.877 606.826 330.259 617.478 C 328.792 619.34 327.525 621.351 326.479 623.478 L 350.099 635.748 L 324.919 627.358 C 321.327 637.974 323.335 649.685 330.259 658.498 C 314.484 678.567 326.349 708.187 351.617 711.814 C 376.884 715.441 396.603 690.355 387.111 666.659 C 385.937 663.728 384.35 660.98 382.399 658.498 C 391.853 646.466 391.853 629.53 382.399 617.498 Z" fill="#2c9656" transform="matrix(0.999995, -0.00315, 0.00315, 0.999995, -2.007871, 1.125621)"/>
  <path d="M 323.285 637.988 C 323.271 645.425 325.769 652.649 330.375 658.488 C 314.6 678.557 326.465 708.176 351.733 711.804 C 377 715.431 396.719 690.345 387.227 666.649 C 386.053 663.718 384.466 660.97 382.515 658.488 C 386.955 652.848 323.285 634.268 323.285 637.988 Z" opacity="0.1" transform="matrix(0.999995, -0.00315, 0.00315, 0.999995, -2.123939, 1.126169)"/>
  <ellipse cx="213.92" cy="681.25" rx="91.94" ry="17.68" fill="#2c9656" transform="matrix(0.999995, -0.00315, 0.00315, 0.999995, 11.330448, -14.838355)"/>
  <ellipse cx="215.45" cy="673.74" rx="10.7" ry="14.01" fill="#3f3d56" transform="matrix(0.999995, -0.00315, 0.00315, 0.999995, 11.330448, -14.838354)"/>
  <ellipse cx="215.45" cy="656.61" rx="10.7" ry="14.01" fill="#3f3d56" transform="matrix(0.999995, -0.00315, 0.00315, 0.999995, 11.330448, -14.838353)"/>
  <ellipse cx="215.45" cy="639.48" rx="10.7" ry="14.01" fill="#3f3d56" transform="matrix(0.999995, -0.00315, 0.00315, 0.999995, 11.330448, -14.838353)"/>
  <ellipse cx="215.45" cy="622.35" rx="10.7" ry="14.01" fill="#3f3d56" transform="matrix(0.999995, -0.00315, 0.00315, 0.999995, 11.330448, -14.838352)"/>
  <ellipse cx="215.45" cy="605.23" rx="10.7" ry="14.01" fill="#3f3d56" transform="matrix(0.999995, -0.00315, 0.00315, 0.999995, 11.330448, -14.838351)"/>
  <ellipse cx="215.45" cy="588.1" rx="10.7" ry="14.01" fill="#3f3d56" transform="matrix(0.999995, -0.00315, 0.00315, 0.999995, 11.330448, -14.83835)"/>
  <ellipse cx="215.45" cy="570.97" rx="10.7" ry="14.01" fill="#3f3d56" transform="matrix(0.999995, -0.00315, 0.00315, 0.999995, 11.330448, -14.83835)"/>
  <path d="M 188.239 438.24 C 186.774 436.376 185.437 434.415 184.239 432.37 L 212.379 427.76 L 181.959 427.99 C 176.059 415.159 175.697 400.465 180.959 387.36 L 221.779 408.53 L 184.159 380.85 C 203.976 346.709 253.32 346.824 272.978 381.056 C 283.384 399.176 281.754 421.798 268.859 438.24 C 271.138 441.136 273.096 444.271 274.699 447.59 L 238.189 466.59 L 277.119 453.52 C 282.668 469.929 279.561 488.03 268.859 501.65 C 293.265 532.676 274.931 578.488 235.858 584.111 C 196.785 589.733 166.278 550.95 180.945 514.301 C 182.763 509.757 185.223 505.496 188.249 501.65 C 173.622 483.044 173.622 456.846 188.249 438.24 Z" fill="#2c9656" transform="matrix(0.999995, -0.00315, 0.00315, 0.999995, -1.479319, 0.722247)"/>
  <path d="M 280.038 469.939 C 280.046 481.446 276.171 492.619 269.038 501.649 C 293.444 532.676 275.11 578.488 236.037 584.111 C 196.964 589.733 166.457 550.95 181.124 514.3 C 182.943 509.756 185.402 505.496 188.428 501.649 C 181.548 492.919 280.038 464.189 280.038 469.939 Z" opacity="0.1" transform="matrix(0.999995, -0.00315, 0.00315, 0.999995, -1.658666, 0.723093)"/>
  <ellipse cx="882" cy="793.56" rx="99" ry="21" fill="#2c9656" opacity="0.1" transform="matrix(0.999995, -0.00315, 0.00315, 0.999995, 11.330387, -14.83836)"/>
  <path d="M 858.469 778.35 C 858.53 778.861 858.657 779.362 858.849 779.84 C 859.397 781.684 860.553 783.287 862.129 784.39 C 862.938 784.857 863.816 785.194 864.729 785.39 C 870.859 786.86 877.229 786.39 883.489 787.02 C 889.749 787.65 896.379 789.28 902.559 787.52 C 904.039 787.1 905.559 786.33 906.159 784.82 C 906.198 784.726 906.229 784.629 906.249 784.53 C 910.739 785.11 915.249 785.53 919.549 784.32 C 921.019 783.9 922.549 783.13 923.149 781.62 C 923.38 780.838 923.451 780.019 923.359 779.21 C 923.179 775 922.979 770.73 921.699 766.74 C 921.221 765.301 920.65 763.895 919.989 762.53 C 919.009 760.43 917.943 758.38 916.789 756.38 L 916.439 755.73 C 917.279 756.1 918.099 756.5 918.909 756.93 C 922.624 745.382 925.33 733.535 926.999 721.52 C 929.069 707.266 928.649 692.76 925.759 678.65 C 924.866 673.942 924.531 669.146 924.759 664.36 C 925.169 654.83 927.379 645.51 929.579 636.25 C 930.699 631.583 931.816 626.886 932.929 622.16 C 934.516 615.493 936.109 608.8 937.709 602.08 C 938.769 597.63 939.829 593.08 939.499 588.5 C 939.269 585.994 938.773 583.52 938.019 581.12 C 936.89 577.245 935.486 573.455 933.819 569.78 C 934.309 569.872 934.816 569.768 935.229 569.49 C 935.558 569.145 935.778 568.71 935.859 568.24 L 938.379 559.16 C 940.149 552.8 941.919 546.39 942.379 539.79 C 942.929 532.32 941.799 524.79 941.559 517.35 C 941.249 507.63 942.429 497.88 941.799 488.18 C 941.659 486.08 941.439 483.99 941.189 481.91 C 941.299 480.81 941.329 479.71 941.359 478.61 C 941.519 473.19 941.459 467.78 939.469 462.78 C 938.103 459.213 935.832 456.063 932.879 453.64 C 932.969 453.19 933.069 452.75 933.159 452.3 L 935.259 442.3 C 937.579 431.21 939.919 419.85 938.589 408.58 C 937.399 398.58 932.709 388.42 924.769 383.08 L 924.699 383.03 L 923.849 382.49 L 923.699 382.4 C 923.439 382.24 923.169 382.09 922.899 381.95 L 922.699 381.84 C 922.379 381.66 922.039 381.49 921.699 381.34 C 919.15 380.193 916.46 379.389 913.699 378.95 L 912.599 378.78 C 911.503 378.607 910.398 378.493 909.289 378.44 L 908.179 378.44 C 907.073 378.426 905.966 378.493 904.869 378.64 C 904.459 378.64 904.059 378.76 903.649 378.84 L 902.449 379.09 C 900.076 379.769 897.656 380.274 895.209 380.6 C 894.749 380.6 894.279 380.66 893.819 380.67 C 892.429 380.67 891.039 380.58 889.639 380.5 C 888.949 380.5 888.249 380.44 887.559 380.44 C 886.408 380.423 885.259 380.527 884.129 380.75 C 882.176 381.197 880.337 382.045 878.729 383.24 C 877.544 384.104 876.445 385.082 875.449 386.16 C 874.641 387.031 873.88 387.946 873.169 388.9 C 872.839 389.34 872.519 389.79 872.169 390.26 L 871.709 390.97 C 871.419 391.46 871.139 391.97 870.879 392.45 C 870.495 393.2 870.161 393.975 869.879 394.77 C 869.084 396.839 868.927 399.1 869.429 401.26 C 869.55 401.718 869.697 402.168 869.869 402.61 C 868.048 406.201 867.106 410.173 867.119 414.2 C 867.119 425.2 873.979 434.48 883.409 437.54 C 884.559 439.66 885.959 442.36 887.129 444.98 C 884.648 446.755 882.487 448.939 880.739 451.44 C 874.879 451.11 869.099 455.78 867.239 461.67 C 866.56 463.937 866.319 466.313 866.529 468.67 C 865.309 473.59 865.249 478.91 865.139 484.05 C 864.969 492.15 864.549 500.23 864.139 508.32 C 863.729 516.41 863.309 524.43 862.889 532.49 C 862.769 534.8 862.649 537.12 862.349 539.41 C 860.879 539.8 860.809 541.81 860.979 543.41 C 861.439 547.68 862.189 552 862.669 556.29 C 862.016 558.935 861.877 561.682 862.259 564.38 L 863.109 564.76 C 863.059 567.523 862.656 570.269 861.909 572.93 C 861.81 573.413 861.59 573.864 861.269 574.24 C 861.692 574.06 862.141 573.948 862.599 573.91 C 861.329 578.09 860.319 582.37 858.829 586.48 C 858.059 588.6 857.159 590.68 856.499 592.85 C 855.921 594.91 855.453 596.999 855.099 599.11 C 854.848 600.324 854.671 601.553 854.569 602.79 C 854.267 607.599 856.214 612.276 859.839 615.45 C 859.839 616.27 859.779 617.08 859.779 617.9 C 859.779 623.75 860.639 629.58 860.429 635.42 C 860.149 643.29 858.739 650.74 858.699 658.62 C 858.569 680.42 864.549 701.73 871.569 722.22 C 874.349 730.34 877.299 738.383 880.419 746.35 C 882.259 751.07 884.339 756.35 882.359 760.98 C 883.029 760.71 883.689 760.46 884.359 760.22 C 883.318 762.837 881.76 765.217 879.779 767.22 C 876.676 770.274 872.629 772.188 868.299 772.65 C 866.209 772.88 864.059 772.76 862.069 773.49 C 860.079 774.22 858.269 776.14 858.469 778.35 Z M 884.029 665.23 C 886.202 653.96 890.36 643.165 896.309 633.35 L 896.369 634 C 896.689 637.22 897.279 640.44 897.919 643.65 C 899.259 650.41 900.829 657.16 900.589 663.95 C 900.338 671.147 900.76 678.351 901.849 685.47 C 902.179 688.255 902.85 690.989 903.849 693.61 C 904.509 695.17 905.369 696.61 905.849 698.25 C 906.367 700.123 906.636 702.056 906.649 704 C 907.536 720.022 906.556 736.094 903.729 751.89 C 903.039 751.89 902.599 752 902.589 752.09 C 902.171 754.792 901.244 757.391 899.859 759.75 L 899.739 759.53 C 899.499 759.11 899.249 758.63 898.989 758.15 L 899.819 758.28 C 897.529 753.34 897.739 747.58 897.639 742.08 C 897.441 734.617 896.682 727.179 895.369 719.83 C 893.405 708.706 889.993 697.887 885.219 687.65 C 884.237 685.495 883.564 683.212 883.219 680.87 C 882.585 675.649 882.859 670.357 884.029 665.23 Z M 925.279 546.23 C 924.904 545.721 924.5 545.234 924.069 544.77 C 923.069 543.7 921.869 542.46 922.169 541 C 922.322 540.426 922.61 539.898 923.009 539.46 C 923.813 538.454 924.703 537.52 925.669 536.67 L 925.989 536.39 C 925.749 539.65 925.513 542.92 925.279 546.2 Z" fill="url(#b5ddeed3-b78d-400e-805e-1392ba69a239)" transform="matrix(0.999995, -0.00315, 0.00315, 0.999995, -1.833175, 2.833274)"/>
  <path d="M 939.668 473.544 L 940.768 482.034 C 941.138 484.914 941.508 487.784 941.708 490.674 C 942.378 500.294 941.138 509.954 941.458 519.594 C 941.718 527.014 942.898 534.424 942.328 541.834 C 941.818 548.374 939.958 554.734 938.098 561.034 L 935.458 570.034 C 935.368 570.505 935.138 570.937 934.798 571.274 C 934.289 571.575 933.685 571.672 933.108 571.544 L 921.388 570.544 C 922.138 567.104 922.968 563.544 923.388 560.014 C 923.708 557.254 923.898 554.474 924.098 551.694 C 924.718 543.034 925.428 534.374 926.098 525.694 L 927.348 510.494 C 927.878 503.894 928.428 497.264 930.088 490.854 C 931.744 484.358 935.043 478.397 939.668 473.544 Z" fill="#2c9656" transform="matrix(0.999995, -0.00315, 0.00315, 0.999995, -1.641477, 2.938188)"/>
  <path d="M 939.668 473.544 L 940.768 482.034 C 941.138 484.914 941.508 487.784 941.708 490.674 C 942.378 500.294 941.138 509.954 941.458 519.594 C 941.718 527.014 942.898 534.424 942.328 541.834 C 941.818 548.374 939.958 554.734 938.098 561.034 L 935.458 570.034 C 935.368 570.505 935.138 570.937 934.798 571.274 C 934.289 571.575 933.685 571.672 933.108 571.544 L 921.388 570.544 C 922.138 567.104 922.968 563.544 923.388 560.014 C 923.708 557.254 923.898 554.474 924.098 551.694 C 924.718 543.034 925.428 534.374 926.098 525.694 L 927.348 510.494 C 927.878 503.894 928.428 497.264 930.088 490.854 C 931.744 484.358 935.043 478.397 939.668 473.544 Z" opacity="0.1" transform="matrix(0.999995, -0.00315, 0.00315, 0.999995, -1.641477, 2.938188)"/>
  <path d="M 919.563 762.702 C 920.251 764.056 920.852 765.452 921.363 766.882 C 922.703 770.832 922.903 775.072 923.103 779.242 C 923.191 780.046 923.116 780.859 922.883 781.632 C 922.303 783.132 920.643 783.892 919.093 784.302 C 912.603 786.052 905.763 784.412 899.093 783.812 C 892.423 783.212 885.833 783.652 879.393 782.202 C 878.442 782.019 877.522 781.699 876.663 781.252 C 875.032 780.191 873.815 778.603 873.213 776.752 C 873.019 776.278 872.888 775.781 872.823 775.272 C 872.613 773.072 874.523 771.172 876.603 770.452 C 878.683 769.732 880.953 769.842 883.143 769.622 C 892.417 768.674 899.897 761.615 901.383 752.412 C 901.463 751.932 912.223 752.222 913.383 752.842 C 914.703 753.572 915.503 755.382 916.253 756.612 C 917.433 758.592 918.536 760.622 919.563 762.702 Z" fill="#a26565" transform="matrix(0.999995, -0.00315, 0.00315, 0.999995, -2.416727, 2.832428)"/>
  <path d="M 919.563 762.702 C 920.251 764.056 920.852 765.452 921.363 766.882 C 922.703 770.832 922.903 775.072 923.103 779.242 C 923.191 780.046 923.116 780.859 922.883 781.632 C 922.303 783.132 920.643 783.892 919.093 784.302 C 912.603 786.052 905.763 784.412 899.093 783.812 C 892.423 783.212 885.833 783.652 879.393 782.202 C 878.442 782.019 877.522 781.699 876.663 781.252 C 875.032 780.191 873.815 778.603 873.213 776.752 C 873.019 776.278 872.888 775.781 872.823 775.272 C 872.613 773.072 874.523 771.172 876.603 770.452 C 878.683 769.732 880.953 769.842 883.143 769.622 C 892.417 768.674 899.897 761.615 901.383 752.412 C 901.463 751.932 912.223 752.222 913.383 752.842 C 914.703 753.572 915.503 755.382 916.253 756.612 C 917.433 758.592 918.536 760.622 919.563 762.702 Z" opacity="0.1" transform="matrix(0.999995, -0.00315, 0.00315, 0.999995, -2.416727, 2.832428)"/>
  <path d="M 901.723 765.939 C 902.415 767.287 903.017 768.68 903.523 770.109 C 904.873 774.109 905.073 778.299 905.263 782.469 C 905.356 783.272 905.281 784.086 905.043 784.859 C 904.473 786.359 902.813 787.119 901.263 787.539 C 894.773 789.279 887.923 787.639 881.263 787.039 C 874.603 786.439 867.993 786.879 861.563 785.429 C 860.608 785.236 859.687 784.898 858.833 784.429 C 857.2 783.37 855.982 781.78 855.383 779.929 C 855.189 779.454 855.058 778.957 854.993 778.449 C 854.783 776.259 856.693 774.349 858.773 773.629 C 860.853 772.909 863.123 773.029 865.313 772.799 C 874.582 771.848 882.06 764.796 883.553 755.599 C 883.633 755.119 894.393 755.399 895.553 756.019 C 896.883 756.749 897.683 758.559 898.433 759.789 C 899.573 761.819 900.693 763.859 901.723 765.939 Z" fill="#a26565" transform="matrix(0.999995, -0.00315, 0.00315, 0.999995, -2.426918, 2.776269)"/>
  <path d="M 854.839 659.654 C 854.699 681.264 860.979 702.384 868.349 722.654 C 871.269 730.694 874.366 738.664 877.639 746.564 C 879.579 751.244 881.769 756.444 879.689 761.064 C 885.689 758.784 891.789 757.444 898.099 758.494 C 895.699 753.594 895.929 747.894 895.819 742.494 C 895.616 735.093 894.826 727.72 893.459 720.444 C 891.341 709.37 887.711 698.639 882.669 688.554 C 881.65 686.427 880.946 684.164 880.579 681.834 C 879.759 676.694 880.399 671.414 881.469 666.324 C 883.771 655.081 888.146 644.366 894.369 634.724 L 894.429 635.364 C 894.803 638.58 895.344 641.774 896.049 644.934 C 897.459 651.624 899.109 658.324 898.859 665.054 C 898.598 672.19 899.041 679.335 900.179 686.384 C 900.546 689.152 901.269 691.861 902.329 694.444 C 903.019 695.994 903.919 697.444 904.459 699.054 C 905 700.906 905.282 702.824 905.299 704.754 C 906.099 721.024 905.299 737.544 901.979 753.494 C 907.549 753.054 913.119 754.664 918.099 757.164 C 921.993 745.747 924.838 733.998 926.599 722.064 C 928.769 707.95 928.328 693.558 925.299 679.604 C 924.355 674.95 924.002 670.196 924.249 665.454 C 924.679 656.004 926.999 646.764 929.309 637.584 L 932.829 623.584 C 934.496 616.917 936.163 610.281 937.829 603.674 C 938.939 599.264 940.059 594.754 939.709 590.214 C 939.465 587.723 938.942 585.268 938.149 582.894 C 935.653 574.82 931.918 567.183 927.079 560.254 C 907.809 561.334 888.309 559.534 869.079 558.054 C 868.147 557.87 867.179 558.034 866.359 558.514 C 865.704 559.18 865.313 560.061 865.259 560.994 L 858.029 601.994 C 856.875 607.694 856.206 613.481 856.029 619.294 C 856.029 625.094 856.929 630.874 856.709 636.664 C 856.359 644.464 854.879 651.844 854.839 659.654 Z" fill="#454b69" transform="matrix(0.999995, -0.00315, 0.00315, 0.999995, -2.073043, 2.829784)"/>
  <path d="M 894.348 635.336 C 894.721 638.552 895.262 641.747 895.968 644.906 C 900.158 637.656 904.678 630.586 908.538 623.156 C 909.538 621.246 910.478 619.306 911.428 617.366 L 914.278 611.566 C 914.808 610.476 915.338 609.386 915.818 608.276 C 916.599 606.682 917.2 605.005 917.608 603.276 C 916.208 603.016 912.748 606.796 911.708 607.786 C 909.586 609.887 907.583 612.104 905.708 614.426 C 903.395 617.005 901.27 619.745 899.348 622.626 C 896.962 626.544 895.271 630.844 894.348 635.336 Z" opacity="0.1" transform="matrix(0.999995, -0.00315, 0.00315, 0.999995, -1.961372, 2.856927)"/>
  <path d="M 877.677 436.448 C 877.677 436.448 888.377 453.498 886.397 457.068 C 884.417 460.638 920.097 453.898 920.097 453.898 C 920.097 453.898 900.667 436.848 902.657 429.708 C 904.647 422.568 877.677 436.448 877.677 436.448 Z" fill="#ee8e9e" transform="matrix(0.999995, -0.00315, 0.00315, 0.999995, -1.39064, 2.833691)"/>
  <circle cx="874.41" cy="435.05" r="24.19" fill="#ee8e9e" transform="matrix(0.999995, -0.00315, 0.00315, 0.999995, 11.330387, -14.838328)"/>
  <path d="M 877.518 454.326 C 880.104 450.721 883.618 447.884 887.688 446.116 C 890.03 445.277 892.453 444.681 894.918 444.336 L 904.568 442.636 C 906.928 442.216 909.458 441.826 911.658 442.796 C 912.77 443.367 913.783 444.113 914.658 445.006 C 918.008 448.116 921.258 451.526 925.468 453.326 C 926.618 453.816 927.818 454.176 928.968 454.666 C 933.678 456.666 937.198 460.926 939.188 465.666 C 941.288 470.606 941.348 475.976 941.188 481.346 C 941.19 483.2 941.006 485.049 940.638 486.866 C 940.156 488.597 939.544 490.288 938.808 491.926 C 937.485 495.429 936.376 499.009 935.488 502.646 C 932.988 512.213 930.908 521.88 929.248 531.646 C 929.107 533.045 928.696 534.404 928.038 535.646 C 927.105 536.89 925.977 537.974 924.698 538.856 C 923.682 539.69 922.748 540.617 921.908 541.626 C 921.49 542.052 921.185 542.574 921.018 543.146 C 920.708 544.586 922.018 545.826 923.018 546.876 C 925.17 549.072 926.725 551.781 927.538 554.746 C 928.039 555.355 928.296 556.129 928.258 556.916 C 928.049 557.464 927.971 558.053 928.028 558.636 C 928.224 559.167 928.535 559.648 928.938 560.046 C 929.871 561.263 930.235 562.822 929.938 564.326 C 922.442 567.583 914.42 569.46 906.258 569.866 C 904.258 569.966 902.258 569.966 900.258 570.206 C 898.838 570.386 897.438 570.676 896.018 570.846 C 893.957 571.04 891.886 571.093 889.818 571.006 C 879.048 570.786 867.968 570.516 858.078 566.246 C 857.148 561.176 859.158 556.006 860.418 551.006 C 862.418 543.006 862.918 534.816 864.418 526.746 C 865.418 521.236 866.918 515.806 867.768 510.256 C 868.618 504.706 868.818 498.956 867.288 493.556 C 865.938 488.776 865.528 483.896 864.128 479.126 C 862.728 474.356 861.748 469.186 863.328 464.466 C 865.288 458.646 871.358 453.996 877.518 454.326 Z" fill="#2c9656" transform="matrix(0.999995, -0.00315, 0.00315, 0.999995, -1.591387, 2.836069)"/>
  <path d="M 865.459 404.579 C 864.279 400.289 866.599 395.819 869.359 392.329 C 872.359 388.579 876.179 385.199 880.869 384.259 C 884.679 383.489 888.629 384.419 892.509 384.109 C 895.939 383.839 899.239 382.599 902.649 382.109 C 905.742 381.775 908.868 381.893 911.929 382.459 C 914.832 382.89 917.671 383.683 920.379 384.819 C 930.679 389.389 936.709 400.649 938.109 411.819 C 939.509 422.989 937.109 434.249 934.619 445.239 L 932.409 455.179 C 930.109 465.529 927.809 475.919 927.199 486.499 C 926.589 497.079 927.729 507.939 932.079 517.599 C 918.011 510.042 907.111 497.702 901.349 482.809 C 899.789 478.719 898.629 474.469 896.889 470.449 C 895.399 466.989 893.489 463.709 892.169 460.179 C 890.676 456.195 889.96 451.962 890.059 447.709 C 890.139 444.509 890.669 441.329 890.579 438.129 C 890.489 434.929 889.669 431.599 887.459 429.279 C 885.459 427.229 882.709 426.279 880.179 424.949 C 876.196 422.903 872.716 420 869.989 416.449 C 868.399 414.369 868.309 413.449 867.909 411.089 C 867.509 408.729 866.079 406.849 865.459 404.579 Z" fill="#454b69" transform="matrix(0.999995, -0.00315, 0.00315, 0.999995, -1.412274, 2.843007)"/>
  <path d="M 865.893 586.422 C 865.643 588.912 866.093 591.422 865.553 593.892 C 865.143 595.732 864.193 597.392 863.633 599.192 C 863.079 601.27 862.793 603.411 862.783 605.562 C 862.703 607.362 862.843 609.562 864.443 610.402 C 865.143 610.772 865.983 610.772 866.713 611.092 C 867.443 611.412 868.063 612.282 867.643 612.962 C 867.223 613.642 866.503 613.532 865.843 613.662 C 865.183 613.792 864.473 614.472 864.843 615.022 C 864.993 615.202 865.196 615.331 865.423 615.392 C 866.09 615.597 866.724 615.9 867.303 616.292 C 867.879 616.711 868.176 617.416 868.073 618.122 C 867.9 618.83 867.112 619.192 866.463 618.862 C 866.756 619.489 866.916 620.17 866.933 620.862 C 864.373 621.962 861.503 620.522 859.103 619.132 C 858.065 618.553 857.063 617.911 856.103 617.212 C 852.161 614.185 849.974 609.403 850.263 604.442 C 850.377 603.214 850.567 601.995 850.833 600.792 C 851.202 598.695 851.693 596.621 852.303 594.582 C 852.993 592.432 853.933 590.382 854.743 588.272 C 856.463 583.782 857.573 579.082 859.133 574.532 C 859.237 574.06 859.502 573.639 859.883 573.342 C 860.227 573.172 860.61 573.099 860.993 573.132 C 862.743 573.04 864.498 573.201 866.203 573.612 C 867.203 573.912 868.913 574.612 869.383 575.612 C 869.853 576.612 869.103 577.452 868.653 578.282 C 867.215 580.791 866.278 583.555 865.893 586.422 Z" fill="#ee8e9e" transform="matrix(0.999995, -0.00315, 0.00315, 0.999995, -1.876848, 2.7116)"/>
  <path d="M 867.287 464.867 C 866.774 465.393 866.342 465.993 866.007 466.647 C 862.567 472.897 862.527 480.367 862.367 487.497 C 862.187 495.497 861.747 503.497 861.307 511.547 L 859.997 535.547 C 859.867 537.837 859.747 540.127 859.417 542.397 C 857.877 542.787 857.817 544.787 857.987 546.397 C 859.097 556.177 861.847 566.247 858.987 575.657 C 858.877 576.14 858.647 576.587 858.317 576.957 C 859.77 576.502 861.323 576.481 862.787 576.897 C 864.217 577.197 865.597 577.727 867.037 578.057 C 868.857 578.467 870.917 578.647 872.157 580.057 C 873.563 575.83 874.682 571.514 875.507 567.137 C 876.187 563.137 876.377 559.017 877.997 555.317 C 878.647 553.827 879.527 552.447 880.327 551.017 C 884.517 543.537 886.577 535.087 888.587 526.747 C 889.489 522.793 889.706 518.714 889.227 514.687 C 888.936 512.85 888.769 510.996 888.727 509.137 C 888.849 507.175 889.106 505.224 889.497 503.297 C 890.347 497.642 889.948 491.871 888.327 486.387 C 886.827 481.297 885.507 475.937 882.327 471.657 C 879.147 467.377 872.597 464.937 867.287 464.867 Z" opacity="0.1" transform="matrix(0.999995, -0.00315, 0.00315, 0.999995, -1.64142, 2.755461)"/>
  <path d="M 866.095 464.071 C 865.581 464.6 865.15 465.203 864.815 465.861 C 861.375 472.101 861.335 479.581 861.175 486.711 C 860.995 494.711 860.555 502.711 860.115 510.711 L 858.805 534.711 C 858.675 537.001 858.555 539.291 858.225 541.561 C 856.685 541.951 856.625 543.951 856.805 545.561 C 857.905 555.341 860.655 565.401 857.805 574.821 C 857.695 575.304 857.464 575.751 857.135 576.121 C 858.587 575.666 860.141 575.645 861.605 576.061 C 863.035 576.361 864.415 576.891 865.855 577.211 C 867.675 577.631 869.735 577.801 870.975 579.211 C 872.384 574.982 873.503 570.662 874.325 566.281 C 875.005 562.281 875.195 558.171 876.815 554.471 C 877.518 552.999 878.296 551.564 879.145 550.171 C 883.345 542.691 885.395 534.231 887.405 525.891 C 888.307 521.937 888.523 517.858 888.045 513.831 C 887.292 510.061 887.384 506.171 888.315 502.441 C 889.164 496.79 888.765 491.021 887.145 485.541 C 885.645 480.451 884.325 475.091 881.145 470.811 C 877.965 466.531 871.405 464.151 866.095 464.071 Z" fill="#2c9656" transform="matrix(0.999995, -0.00315, 0.00315, 0.999995, -1.638839, 2.751724)"/>
  <g opacity="0.1" transform="matrix(0.999995, -0.00315, 0.00315, 0.999995, 11.330467, -14.838293)">
    <path d="M891.56,452.69c3-3.75,6.82-7.13,11.51-8.07,3.81-.77,7.76.16,11.64-.15,3.43-.27,6.73-1.51,10.14-2a32.12,32.12,0,0,1,9.28.35,35.25,35.25,0,0,1,8.45,2.36,25.09,25.09,0,0,1,4.17,2.37,35.56,35.56,0,0,0-7.47-2,32,32,0,0,0-9.27-.35c-3.42.44-6.71,1.67-10.15,1.94-3.87.31-7.82-.61-11.64.15-4.69.94-8.53,4.33-11.5,8.08-2.77,3.48-5.08,7.95-3.91,12.25.62,2.26,2.06,4.24,2.45,6.57s.49,3.28,2.09,5.36a30.38,30.38,0,0,0,7.34,6.83c-.77-.36-1.56-.72-2.31-1.11a30.31,30.31,0,0,1-10.19-8.5c-1.59-2.08-1.68-3-2.08-5.36s-1.83-4.3-2.45-6.57C886.48,460.65,888.8,456.18,891.56,452.69Z" transform="translate(-35 -42.72)"/>
    <path d="M909.66,489.7a10,10,0,0,0-1.35-1.17c2.31,1.12,4.74,2.1,6.51,4,2.21,2.31,3,5.65,3.12,8.85s-.45,6.38-.52,9.57a33.41,33.41,0,0,0,2.11,12.48c1.32,3.53,3.23,6.8,4.72,10.27,1.73,4,2.89,8.26,4.45,12.35a67,67,0,0,0,25.41,31.62c.06.13.11.27.17.4a66.89,66.89,0,0,1-30.73-34.79c-1.56-4.09-2.72-8.34-4.46-12.36-1.49-3.46-3.4-6.74-4.72-10.27a33.36,33.36,0,0,1-2.11-12.47c.08-3.2.61-6.38.52-9.58S911.87,492,909.66,489.7Z" transform="translate(-35 -42.72)"/>
  </g>
  <rect x="123" y="121.78" width="82" height="58" rx="9.15" opacity="0.1" transform="matrix(0.999995, -0.00315, 0.00315, 0.999995, 11.330467, -14.838293)" style=""/>
  <rect x="205" y="223.78" width="82" height="58" rx="9.15" opacity="0.1" transform="matrix(0.999995, -0.00315, 0.00315, 0.999995, 11.330467, -14.838293)" style=""/>
  <rect x="887" y="131.78" width="82" height="58" rx="9.15" opacity="0.1" transform="matrix(0.999995, -0.00315, 0.00315, 0.999995, 11.330467, -14.838293)" style=""/>
</svg>