<svg width="345" height="319" viewBox="0 0 345 319" fill="none" xmlns="http://www.w3.org/2000/svg">
<path d="M224.544 39.0289L348.822 231.914C353.379 238.987 356 247.188 356 255.942C356 282.527 331.948 304.081 302.277 304.081H178L135.022 159.5L178 14.9195C197.9 14.9195 215.26 24.6222 224.544 39.0289Z" fill="#3B4145"/>
<path d="M131.456 39.0289L7.17771 231.914C2.62063 238.987 0 247.188 0 255.942C0 282.527 24.0522 304.081 53.7226 304.081H178V14.9195C158.1 14.9195 140.74 24.6222 131.456 39.0289Z" fill="#525A61"/>
<path d="M330.213 241.542L205.936 48.6587C200.334 39.9616 190.048 34.4738 178.924 34.1916L285.216 284.828H302.278C320.05 284.828 334.511 271.87 334.511 255.945C334.511 250.887 333.021 245.906 330.213 241.542Z" fill="#FFB751"/>
<path d="M309.312 241.542C311.74 245.906 313.022 250.887 313.022 255.945C313.022 271.869 300.552 284.828 285.215 284.828H53.7226C35.9511 284.828 21.4893 271.869 21.4893 255.945C21.4893 250.887 22.9794 245.906 25.787 241.542L150.064 48.6587C155.824 39.7242 166.525 34.1722 178 34.1722C178.308 34.1722 178.616 34.1785 178.924 34.1916C188.472 34.5255 197.29 40.0002 202.096 48.6587L309.312 241.542Z" fill="#ADDB31"/>
<path d="M178 220.64V252.733C187.892 252.733 195.908 245.55 195.908 236.686C195.908 227.823 187.892 220.64 178 220.64Z" fill="#3B4145"/>
<path d="M178 220.64C179.977 220.64 181.582 227.823 181.582 236.687C181.582 245.551 179.977 252.733 178 252.733C168.108 252.733 160.092 245.551 160.092 236.687C160.092 227.823 168.108 220.64 178 220.64Z" fill="#525A61"/>
<path d="M178 82.6447V201.387C187.892 201.387 195.908 194.199 195.908 185.341V98.6913C195.908 89.8272 187.892 82.6447 178 82.6447Z" fill="#3B4145"/>
<path d="M178 82.6447C179.977 82.6447 181.582 89.8272 181.582 98.6913V185.341C181.582 194.198 179.977 201.387 178 201.387C168.108 201.387 160.092 194.199 160.092 185.341V98.6913C160.092 89.8272 168.108 82.6447 178 82.6447Z" fill="#525A61"/>
</svg>
