<svg width="156" height="152" viewBox="0 0 156 152" fill="none" xmlns="http://www.w3.org/2000/svg">
<g clip-path="url(#clip0)">
<path d="M26 76C33.1797 76 39 70.3289 39 63.3333C39 56.3377 33.1797 50.6667 26 50.6667C18.8203 50.6667 13 56.3377 13 63.3333C13 70.3289 18.8203 76 26 76Z" fill="#ADDB31"/>
<path d="M43.355 84.8667C36.79 89.68 32.5 97.4067 32.5 106.083V107.667H4.875C2.21 107.667 0 105.513 0 102.917V99.75C0 90.1233 7.995 82.3333 17.875 82.3333H34.125C37.505 82.3333 40.69 83.2833 43.355 84.8667Z" fill="#ADDB31"/>
<path d="M130 76C137.18 76 143 70.3289 143 63.3333C143 56.3377 137.18 50.6667 130 50.6667C122.82 50.6667 117 56.3377 117 63.3333C117 70.3289 122.82 76 130 76Z" fill="#ADDB31"/>
<path d="M156 99.75V102.917C156 105.513 153.79 107.667 151.125 107.667H123.5V106.083C123.5 97.4067 119.21 89.68 112.645 84.8667C115.31 83.2833 118.495 82.3333 121.875 82.3333H138.125C148.005 82.3333 156 90.1233 156 99.75Z" fill="#ADDB31"/>
<path d="M78 79.1667C88.7696 79.1667 97.5 70.6601 97.5 60.1667C97.5 49.6733 88.7696 41.1667 78 41.1667C67.2304 41.1667 58.5 49.6733 58.5 60.1667C58.5 70.6601 67.2304 79.1667 78 79.1667Z" fill="#ADDB31"/>
<path d="M95.875 88.6667H60.125C50.2645 88.6667 42.25 96.4757 42.25 106.083V115.583C42.25 118.205 44.434 120.333 47.125 120.333H108.875C111.566 120.333 113.75 118.205 113.75 115.583V106.083C113.75 96.4757 105.735 88.6667 95.875 88.6667Z" fill="#ADDB31"/>
</g>
<defs>
<clipPath id="clip0">
<rect width="156" height="152" fill="white"/>
</clipPath>
</defs>
</svg>
