<svg width="55" height="56" viewBox="0 0 55 56" fill="none" xmlns="http://www.w3.org/2000/svg">
<g clip-path="url(#clip0)">
<path d="M47.4115 21.1487H7.58858C5.63314 21.1487 4.04218 22.7685 4.04218 24.7595V34.7926C4.04218 35.2469 4.40373 35.615 4.84994 35.615H50.15C50.5962 35.615 50.9578 35.2469 50.9578 34.7926V24.7595C50.9579 22.7686 49.3669 21.1487 47.4115 21.1487Z" fill="#A58260"/>
<path d="M47.4114 21.1487H43.6252C45.5806 21.1487 47.1716 22.7685 47.1716 24.7595V34.7926C47.1716 35.2469 46.81 35.615 46.3638 35.615H50.1502C50.5964 35.615 50.9579 35.2469 50.9579 34.7926V24.7595C50.9578 22.7686 49.3669 21.1487 47.4114 21.1487Z" fill="#8C6B50"/>
<path d="M21.3072 28.4993H12.8067C10.8642 28.4993 9.28387 30.1083 9.28387 32.0861V34.7927C9.28387 35.247 9.64543 35.6151 10.0916 35.6151H24.0221C24.4683 35.6151 24.8299 35.247 24.8299 34.7927V32.0861C24.8299 30.1083 23.2496 28.4993 21.3072 28.4993Z" fill="#FFDF65"/>
<path d="M42.1933 28.4993H33.6929C31.7505 28.4993 30.1702 30.1083 30.1702 32.0861V34.7927C30.1702 35.247 30.5317 35.6151 30.9779 35.6151H44.9084C45.3546 35.6151 45.7161 35.247 45.7161 34.7927V32.0861C45.7161 30.1083 44.1358 28.4993 42.1933 28.4993Z" fill="#FFDF65"/>
<path d="M21.3071 28.4993H17.6879C19.6303 28.4993 21.2106 30.1083 21.2106 32.0861V34.7927C21.2106 35.247 20.8491 35.6151 20.4029 35.6151H24.0221C24.4683 35.6151 24.8298 35.247 24.8298 34.7927V32.0861C24.8298 30.1083 23.2495 28.4993 21.3071 28.4993Z" fill="#FFCD2C"/>
<path d="M42.1933 28.4993H38.5741C40.5166 28.4993 42.0969 30.1083 42.0969 32.0861V34.7927C42.0969 35.247 41.7354 35.6151 41.2891 35.6151H44.9084C45.3546 35.6151 45.7161 35.247 45.7161 34.7927V32.0861C45.7161 30.1083 44.1358 28.4993 42.1933 28.4993Z" fill="#FFCD2C"/>
<path d="M54.1922 39.9204H0.807762C0.361662 39.9204 0 40.2885 0 40.7428V50.9621C0 51.4164 0.361662 51.7846 0.807762 51.7846H54.1922C54.6383 51.7846 55 51.4164 55 50.9621V40.7428C55 40.2886 54.6384 39.9204 54.1922 39.9204Z" fill="#6E563D"/>
<path d="M54.1923 39.9204H51.2842V40.7428V50.9621C51.2842 51.4164 50.9226 51.7846 50.4764 51.7846H54.1923C54.6384 51.7846 55 51.4164 55 50.9621V40.7428C55 40.2886 54.6385 39.9204 54.1923 39.9204Z" fill="#604B35"/>
<path d="M50.4563 33.9701H4.54372C2.03836 33.9701 0 36.0455 0 38.5965V40.7428C0 41.1971 0.361662 41.5653 0.807762 41.5653H54.1922C54.6383 41.5653 55 41.1971 55 40.7428V38.5965C55 36.0455 52.9616 33.9701 50.4563 33.9701Z" fill="#46CE7C"/>
<path d="M50.4563 33.9701H46.7405C49.2459 33.9701 51.2843 36.0455 51.2843 38.5965V40.7428V41.5653H54.1924C54.6385 41.5653 55.0001 41.1971 55.0001 40.7428V38.5965C55 36.0455 52.9616 33.9701 50.4563 33.9701Z" fill="#42C074"/>
<path d="M25.3724 18.4988H21.0465C20.7261 18.4988 20.4362 18.3061 20.3071 18.0076C20.1782 17.709 20.2346 17.3611 20.451 17.1206L23.5363 13.6932H21.453C21.0068 13.6932 20.6452 13.3251 20.6452 12.8708C20.6452 12.4165 21.0068 12.0483 21.453 12.0483H25.3724C25.6929 12.0483 25.9828 12.2411 26.1118 12.5395C26.2407 12.8381 26.1843 13.1861 25.9679 13.4264L22.8826 16.8538H25.3724C25.8187 16.8538 26.1802 17.222 26.1802 17.6763C26.1802 18.1307 25.8187 18.4988 25.3724 18.4988Z" fill="#8CC7EC"/>
<path d="M37.4012 13.6044H30.4303C30.1098 13.6044 29.8199 13.4116 29.6909 13.1132C29.562 12.8146 29.6183 12.4667 29.8348 12.2263L35.5651 5.86034H30.8383C30.3921 5.86034 30.0306 5.49221 30.0306 5.03789C30.0306 4.58357 30.3921 4.21544 30.8383 4.21544H37.4012C37.7217 4.21544 38.0116 4.40822 38.1406 4.7066C38.2695 5.00521 38.2132 5.35316 37.9967 5.59353L32.2664 11.9595H37.4012C37.8475 11.9595 38.209 12.3276 38.209 12.782C38.209 13.2363 37.8473 13.6044 37.4012 13.6044Z" fill="#8CC7EC"/>
</g>
<defs>
<clipPath id="clip0">
<rect width="55" height="56" fill="white"/>
</clipPath>
</defs>
</svg>
