<svg width="300" height="257" viewBox="0 0 300 257" fill="none" xmlns="http://www.w3.org/2000/svg">
<g clip-path="url(#clip0)">
<path d="M240.068 82.0768V59.5937H260.045V101.265L240.068 82.0768Z" fill="url(#paint0_linear)"/>
<path d="M242.438 83.6343V63.9955H257.336V101.265L242.438 83.6343Z" fill="#F39C12"/>
<path d="M116.983 103.432C119.732 100.288 121.774 96.5896 122.971 92.5878C124.168 88.5861 124.492 84.374 123.921 80.2363C123.35 76.0986 121.897 72.1317 119.661 68.6037C117.425 65.0758 114.458 62.069 110.959 59.7867C112.768 56.9869 113.727 53.7236 113.722 50.3905C113.722 40.9639 106.249 33.3217 97.0328 33.3217C89.4414 33.3217 83.0418 38.5124 81.0204 45.6095C76.6626 38.2449 68.7563 33.3217 59.7258 33.3217C45.9888 33.3217 34.8556 44.7088 34.8556 58.7574C34.8524 61.75 35.3679 64.7206 36.3793 67.5373C35.8748 67.4966 35.3635 67.4594 34.8556 67.4594C23.8307 67.4594 14.8781 76.6016 14.8781 87.877C14.8781 88.5711 14.912 89.2585 14.9797 89.9391C10.4948 91.953 6.69152 95.2265 4.0322 99.3615C1.37289 103.497 -0.0279259 108.315 4.46209e-05 113.231C4.46209e-05 127.233 11.0994 138.586 24.789 138.586C26.2276 138.584 27.6632 138.455 29.0791 138.2C29.0046 139.043 28.9605 139.893 28.9605 140.763C28.9605 156.474 41.4143 169.205 56.7766 169.205C62.4567 169.204 67.9946 167.428 72.6163 164.126C76.3352 167.394 81.1149 169.199 86.0655 169.205C97.5407 169.205 106.845 159.691 106.845 147.951C106.845 147.444 106.805 146.936 106.771 146.445H106.845C119.137 146.445 129.098 136.256 129.098 123.687C129.117 119.527 127.999 115.442 125.863 111.872C123.728 108.301 120.657 105.383 116.983 103.432V103.432Z" fill="url(#paint1_linear)"/>
<path d="M113.77 103.297C116.351 100.345 118.268 96.8737 119.392 93.1171C120.516 89.3606 120.82 85.4065 120.284 81.5222C119.748 77.638 118.384 73.9141 116.285 70.6024C114.185 67.2907 111.399 64.4683 108.115 62.3262C109.81 59.7031 110.711 56.6458 110.709 53.5226C110.709 44.6749 103.696 37.5 95.0417 37.5C87.9311 37.5 81.9108 42.3725 80.0113 49.0327C77.9739 45.5373 75.059 42.6345 71.5551 40.6117C68.0511 38.5889 64.0797 37.5163 60.0338 37.5C47.1399 37.5 36.6873 48.1896 36.6873 61.3747C36.6839 64.1838 37.1674 66.9723 38.1162 69.6163C37.6422 69.579 37.1682 69.5418 36.6873 69.5418C26.3262 69.5384 17.9458 78.1151 17.9458 88.7133C17.9458 89.3668 17.9797 90.0102 18.0406 90.6467C13.8286 92.5353 10.2562 95.6072 7.75785 99.4888C5.25954 103.37 3.943 107.894 3.96838 112.51C3.96838 125.655 14.3871 136.307 27.237 136.307C28.587 136.305 29.9343 136.184 31.263 135.945C31.1952 136.737 31.1512 137.539 31.1512 138.349C31.1512 153.095 42.8397 165.051 57.2607 165.051C62.5894 165.058 67.7873 163.4 72.1286 160.31C75.623 163.368 80.1086 165.052 84.7517 165.051C95.5226 165.051 104.258 156.119 104.258 145.1C104.258 144.623 104.221 144.156 104.187 143.685H104.258C115.795 143.685 125.147 134.12 125.147 122.323C125.167 118.415 124.117 114.577 122.112 111.223C120.106 107.869 117.222 105.128 113.77 103.297Z" fill="#00897B"/>
<path d="M72.5791 72.8228H66.5148V223.673H72.5791V72.8228Z" fill="url(#paint2_linear)"/>
<path d="M71.2889 74.9424H68.2382V223.673H71.2889V74.9424Z" fill="#795548"/>
<path d="M92.9938 91.7373L67.9611 118.77L70.1995 120.843L95.2323 93.8101L92.9938 91.7373Z" fill="#795548"/>
<path d="M44.0342 122.55L42.2152 124.999L68.17 144.275L69.9889 141.825L44.0342 122.55Z" fill="#795548"/>
<path d="M78.8939 120.203C74.7988 115.846 72.5156 110.093 72.5079 104.113C72.5079 95.4989 77.1908 87.9481 84.2269 83.6919C82.6437 81.3818 81.7963 78.647 81.7957 75.8465C81.7957 67.9605 88.412 61.5677 96.5756 61.5677C103.3 61.5677 108.965 65.9086 110.756 71.8476C112.771 68.6774 115.559 66.071 118.857 64.273C122.155 62.4749 125.856 61.544 129.613 61.5677C141.779 61.5677 151.622 71.0959 151.622 82.8488C151.622 85.3589 151.163 87.8479 150.267 90.193C150.714 90.1592 151.161 90.1287 151.622 90.1287C161.387 90.1287 169.3 97.7743 169.3 107.208C169.299 107.783 169.269 108.359 169.209 108.931C177.017 112.182 182.485 119.682 182.485 128.418C182.485 140.133 172.666 149.628 160.53 149.628C159.257 149.621 157.986 149.508 156.731 149.289C156.796 149.997 156.836 150.708 156.836 151.432C156.836 164.577 145.808 175.233 132.203 175.233C127.217 175.242 122.34 173.766 118.195 170.993C114.837 173.746 110.626 175.245 106.283 175.233C96.1253 175.233 87.8804 167.272 87.8804 157.453C87.8804 157.026 87.9142 156.61 87.9447 156.19H87.8804C76.9978 156.19 68.1738 147.664 68.1738 137.15C68.1738 129.762 72.5384 123.359 78.8939 120.203Z" fill="url(#paint3_linear)"/>
<path d="M80.895 120.125C76.9812 115.951 74.8021 110.444 74.8002 104.722C74.8002 96.4774 79.2832 89.2517 86.018 85.1783C84.4945 82.9651 83.6787 80.3415 83.6783 77.6546C83.6783 70.1072 90.0135 63.9853 97.825 63.9853C104.258 63.9853 109.676 68.1399 111.399 73.8251C113.328 70.7953 115.994 68.3043 119.147 66.5852C122.301 64.8661 125.838 63.975 129.43 63.9955C141.074 63.9955 150.511 73.114 150.511 84.3623C150.513 86.7656 150.076 89.149 149.221 91.395C149.648 91.3646 150.074 91.3307 150.511 91.3307C159.857 91.3307 167.441 98.6512 167.441 107.678C167.441 108.229 167.413 108.779 167.357 109.327C174.829 112.439 180.064 119.617 180.064 127.977C180.064 139.188 170.658 148.293 159.051 148.293C157.833 148.287 156.617 148.178 155.418 147.968C155.478 148.646 155.516 149.323 155.516 150.02C155.516 162.603 144.958 172.801 131.939 172.801C127.159 172.812 122.485 171.397 118.513 168.738C115.3 171.375 111.27 172.812 107.113 172.801C97.3848 172.801 89.5056 165.183 89.5056 155.783C89.5056 155.377 89.5394 154.977 89.5699 154.574H89.5056C79.0868 154.574 70.6421 146.414 70.6421 136.351C70.6252 129.274 74.8002 123.146 80.895 120.125Z" fill="#009688"/>
<path d="M124.199 96.298H117.301V222.907H124.199V96.298Z" fill="url(#paint4_linear)"/>
<path d="M122.77 96.298H118.957V222.907H122.77V96.298Z" fill="#795548"/>
<path d="M100 109.822L97.2778 112.491L119.886 135.553L122.609 132.884L100 109.822Z" fill="#795548"/>
<path d="M143.591 136.027L120.154 152.474L122.344 155.595L145.781 139.147L143.591 136.027Z" fill="#795548"/>
<path d="M275.353 118.51H105.305C101.421 118.51 98.2754 120.257 98.2754 122.418V247.253H282.393V122.418C282.393 120.257 279.237 118.51 275.353 118.51Z" fill="url(#paint5_linear)"/>
<path d="M189.792 47.079L101.082 112.971V242.492H279.034V117.67L189.792 47.079Z" fill="white"/>
<path d="M189.969 126.267C200.878 126.267 209.723 117.423 209.723 106.514C209.723 95.6037 200.878 86.7596 189.969 86.7596C179.059 86.7596 170.215 95.6037 170.215 106.514C170.215 117.423 179.059 126.267 189.969 126.267Z" fill="url(#paint6_linear)"/>
<path d="M152.932 144.609H118.012V179.529H152.932V144.609Z" fill="url(#paint7_linear)"/>
<path d="M261.22 144.609H226.3V179.529H261.22V144.609Z" fill="url(#paint8_linear)"/>
<path d="M83.9729 145.835L79.2427 119.377L190.182 34.114L300 121.08L296.953 144.819L190.165 64.2393L83.9729 145.835Z" fill="url(#paint9_linear)"/>
<path d="M84.1895 140.523L80.9355 122.242L190.155 37.0158L298.307 122.248L295.033 140.512L190.138 57.8465L84.1895 140.523Z" fill="#F39C12"/>
<path d="M211.134 184.114H168.454V242.492H211.134V184.114Z" fill="url(#paint10_linear)"/>
<path d="M209.898 185.35H169.686V242.492H209.898V185.35Z" fill="#F39C12"/>
<path d="M152.052 145.842H119.601V157.307H152.052V145.842Z" fill="#F39C12"/>
<path opacity="0.2" d="M152.052 157.307H119.601V178.293H152.052V157.307Z" fill="#F39C12"/>
<path d="M259.988 145.842H227.536V157.307H259.988V145.842Z" fill="#F39C12"/>
<path opacity="0.2" d="M259.988 157.307H227.536V178.293H259.988V157.307Z" fill="#F39C12"/>
<path d="M189.792 124.327C192.156 124.327 194.497 123.861 196.681 122.956C198.864 122.051 200.848 120.725 202.519 119.052C204.19 117.38 205.515 115.395 206.418 113.21C207.321 111.026 207.784 108.684 207.782 106.321H171.802C171.8 108.684 172.264 111.026 173.167 113.21C174.07 115.395 175.395 117.38 177.066 119.052C178.736 120.725 180.72 122.051 182.904 122.956C185.088 123.861 187.428 124.327 189.792 124.327V124.327Z" fill="#F39C12"/>
<path opacity="0.2" d="M189.792 124.151C194.564 124.151 199.139 122.256 202.513 118.882C205.887 115.508 207.782 110.933 207.782 106.161H171.802C171.802 110.933 173.698 115.508 177.072 118.882C180.445 122.256 185.021 124.151 189.792 124.151V124.151Z" fill="black"/>
<path opacity="0.2" d="M189.792 88.3476C185.024 88.3476 180.451 90.2407 177.078 93.6107C173.704 96.9808 171.807 101.552 171.802 106.321H207.782C207.778 101.552 205.88 96.9808 202.507 93.6107C199.134 90.2407 194.561 88.3476 189.792 88.3476V88.3476Z" fill="#F39C12"/>
<path opacity="0.2" d="M189.792 88.3476C185.024 88.3476 180.451 90.2407 177.078 93.6107C173.704 96.9808 171.807 101.552 171.802 106.321H207.782C207.778 101.552 205.88 96.9808 202.507 93.6107C199.134 90.2407 194.561 88.3476 189.792 88.3476V88.3476Z" fill="#F39C12"/>
<path d="M200.55 217.977C202.887 217.977 204.782 216.082 204.782 213.745C204.782 211.407 202.887 209.512 200.55 209.512C198.212 209.512 196.317 211.407 196.317 213.745C196.317 216.082 198.212 217.977 200.55 217.977Z" fill="url(#paint11_linear)"/>
<path d="M200.55 216.921C202.304 216.921 203.726 215.499 203.726 213.745C203.726 211.991 202.304 210.569 200.55 210.569C198.796 210.569 197.374 211.991 197.374 213.745C197.374 215.499 198.796 216.921 200.55 216.921Z" fill="#263238"/>
<path d="M215.011 234.203H163.161V251.133H215.011V234.203Z" fill="url(#paint12_linear)"/>
<path d="M213.951 235.612H164.218V250.073H213.951V235.612Z" fill="white"/>
<path d="M114.626 195.159C115.893 193.71 116.834 192.005 117.385 190.161C117.937 188.316 118.086 186.375 117.822 184.468C117.559 182.561 116.89 180.733 115.86 179.107C114.829 177.481 113.462 176.095 111.85 175.043C112.684 173.753 113.126 172.248 113.123 170.712C113.17 168.837 112.529 167.01 111.32 165.575C110.111 164.141 108.419 163.199 106.563 162.928C104.707 162.656 102.816 163.074 101.247 164.102C99.6783 165.131 98.5404 166.698 98.0486 168.508C97.0476 166.79 95.6148 165.363 93.8923 164.369C92.1699 163.376 90.2177 162.85 88.2292 162.843C81.8973 162.843 76.7641 168.091 76.7641 174.569C76.7604 175.954 76.9975 177.329 77.4651 178.632C77.2314 178.615 77.0012 178.595 76.7641 178.595C71.6851 178.595 67.561 182.807 67.561 188.005C67.561 188.326 67.561 188.641 67.6084 188.956C65.5401 189.884 63.7858 191.392 62.5589 193.298C61.332 195.205 60.6854 197.426 60.6976 199.693C60.6976 206.147 65.8138 211.378 72.1253 211.378C72.7885 211.377 73.4502 211.317 74.1028 211.199C74.0689 211.588 74.0486 211.981 74.0486 212.38C74.0486 219.623 79.8048 225.494 86.8714 225.494C89.4887 225.495 92.0409 224.678 94.1716 223.158C95.8866 224.663 98.0899 225.493 100.371 225.494C105.66 225.494 109.95 221.093 109.95 215.699C109.95 215.465 109.933 215.235 109.917 215.005H109.95C115.615 215.005 120.207 210.308 120.207 204.508C120.218 202.589 119.704 200.703 118.72 199.055C117.737 197.407 116.321 196.06 114.626 195.159V195.159Z" fill="url(#paint13_linear)"/>
<path d="M113.143 195.098C114.333 193.738 115.216 192.137 115.734 190.406C116.251 188.675 116.391 186.852 116.144 185.062C115.897 183.272 115.268 181.556 114.301 180.029C113.333 178.503 112.05 177.202 110.536 176.214C111.318 175.004 111.734 173.593 111.731 172.151C111.776 170.391 111.174 168.675 110.039 167.329C108.905 165.982 107.316 165.098 105.574 164.843C103.831 164.589 102.056 164.981 100.583 165.946C99.1107 166.912 98.0427 168.383 97.5813 170.082C96.6422 168.472 95.2989 167.134 93.6842 166.201C92.0695 165.269 90.2393 164.774 88.3747 164.766C82.4323 164.766 77.614 169.693 77.614 175.771C77.613 177.066 77.8364 178.351 78.2743 179.57C78.0576 179.57 77.8375 179.536 77.614 179.536C72.8431 179.536 68.9763 183.491 68.9763 188.37C68.9763 188.672 68.9763 188.97 69.0203 189.261C67.079 190.131 65.4323 191.547 64.2806 193.336C63.1289 195.125 62.5217 197.21 62.5327 199.337C62.5327 205.395 67.3341 210.308 73.2596 210.308C73.8818 210.308 74.5027 210.252 75.1151 210.142C75.0847 210.508 75.0643 210.877 75.0643 211.249C75.0643 218.049 80.4515 223.558 87.0982 223.558C89.5554 223.558 91.9514 222.791 93.9515 221.363C95.5615 222.776 97.63 223.556 99.772 223.558C104.739 223.558 108.762 219.44 108.762 214.361C108.762 214.141 108.745 213.924 108.728 213.708H108.762C114.078 213.708 118.392 209.306 118.392 203.861C118.399 202.061 117.914 200.293 116.989 198.748C116.064 197.203 114.734 195.941 113.143 195.098V195.098Z" fill="#00897B"/>
<path d="M94.1579 181.053H91.3611V250.588H94.1579V181.053Z" fill="url(#paint14_linear)"/>
<path d="M93.5622 182.028H92.157V250.588H93.5622V182.028Z" fill="#795548"/>
<path d="M103.572 189.757L92.032 202.219L93.063 203.174L104.603 190.712L103.572 189.757Z" fill="#795548"/>
<path d="M80.9987 203.98L80.1609 205.108L92.1243 213.993L92.9621 212.865L80.9987 203.98Z" fill="#795548"/>
<path d="M97.0733 202.893C95.1843 200.884 94.132 198.231 94.1309 195.474C94.1433 193.571 94.6489 191.703 95.5984 190.053C96.5479 188.403 97.9089 187.028 99.5485 186.061C98.8146 184.995 98.4215 183.732 98.4209 182.438C98.4209 178.801 101.468 175.856 105.234 175.856C106.688 175.839 108.109 176.291 109.287 177.144C110.464 177.998 111.336 179.208 111.772 180.596C112.701 179.134 113.985 177.932 115.506 177.103C117.026 176.274 118.732 175.845 120.464 175.856C126.071 175.856 130.622 180.257 130.622 185.675C130.623 186.832 130.411 187.98 129.999 189.061C130.205 189.061 130.412 189.03 130.622 189.03C135.122 189.03 138.772 192.555 138.772 196.903C138.772 197.169 138.759 197.434 138.731 197.699C140.525 198.423 142.064 199.663 143.154 201.262C144.243 202.861 144.833 204.747 144.85 206.682C144.85 212.082 140.319 216.461 134.729 216.461C134.142 216.46 133.557 216.41 132.978 216.312C133.009 216.65 133.026 216.965 133.026 217.3C133.026 223.358 127.947 228.271 121.669 228.271C119.367 228.277 117.116 227.597 115.202 226.317C113.651 227.582 111.708 228.268 109.706 228.257C105.02 228.257 101.225 224.587 101.225 220.06C101.225 219.863 101.225 219.67 101.255 219.477H101.225C96.2065 219.477 92.1399 215.546 92.1399 210.701C92.1517 209.069 92.62 207.472 93.4919 206.093C94.3637 204.713 95.6043 203.604 97.0733 202.893Z" fill="url(#paint15_linear)"/>
<path d="M97.9908 202.856C96.1814 200.93 95.1739 198.387 95.1737 195.745C95.184 193.924 95.6657 192.138 96.5718 190.559C97.4779 188.98 98.7776 187.662 100.344 186.735C99.6414 185.715 99.2648 184.506 99.264 183.268C99.264 179.787 102.183 176.966 105.785 176.966C107.176 176.952 108.535 177.385 109.662 178.201C110.788 179.017 111.623 180.174 112.043 181.5C112.932 180.102 114.162 178.952 115.617 178.159C117.072 177.366 118.705 176.956 120.362 176.966C125.729 176.966 130.08 181.168 130.08 186.356C130.08 187.463 129.878 188.561 129.484 189.596C129.68 189.596 129.877 189.565 130.08 189.565C134.387 189.565 137.868 192.951 137.868 197.103C137.867 197.357 137.854 197.611 137.827 197.865C139.545 198.557 141.018 199.744 142.061 201.274C143.103 202.805 143.669 204.61 143.685 206.462C143.685 211.629 139.347 215.821 133.998 215.821C133.43 215.821 132.864 215.773 132.305 215.678C132.335 215.99 132.352 216.305 132.352 216.623C132.352 222.423 127.486 227.12 121.483 227.12C119.28 227.126 117.125 226.475 115.293 225.251C113.812 226.465 111.954 227.125 110.038 227.12C105.555 227.12 101.912 223.608 101.912 219.274C101.912 219.088 101.912 218.902 101.942 218.719H101.912C97.1105 218.719 93.2166 214.957 93.2166 210.318C93.2345 208.752 93.6914 207.223 94.5354 205.903C95.3794 204.584 96.5766 203.528 97.9908 202.856V202.856Z" fill="#009688"/>
<path d="M117.951 191.871H114.772V250.233H117.951V191.871Z" fill="url(#paint16_linear)"/>
<path d="M117.295 191.871H115.537V250.233H117.295V191.871Z" fill="#795548"/>
<path d="M106.798 198.107L105.543 199.338L115.966 209.969L117.22 208.739L106.798 198.107Z" fill="#795548"/>
<path d="M126.894 210.182L116.091 217.764L117.1 219.202L127.904 211.62L126.894 210.182Z" fill="#795548"/>
<path d="M30.21 170.573L53.0858 194.35L78.9684 170.573" stroke="#37474F" stroke-miterlimit="10"/>
<path d="M22.9876 158.533H7.63879V253.341H22.9876V158.533Z" fill="url(#paint17_linear)"/>
<path d="M21.7821 160.337H8.84082V250.029H21.7821V160.337Z" fill="#F5F5F5"/>
<path d="M95.8239 162.447H3.72461V179.001H95.8239V162.447Z" fill="url(#paint18_linear)"/>
<path d="M4.93005 164.252L4.93005 177.193H94.6219V164.252H4.93005Z" fill="#F5F5F5"/>
<path d="M15.4638 173.282C16.9598 173.282 18.1726 172.069 18.1726 170.573C18.1726 169.077 16.9598 167.865 15.4638 167.865C13.9678 167.865 12.755 169.077 12.755 170.573C12.755 172.069 13.9678 173.282 15.4638 173.282Z" fill="url(#paint19_linear)"/>
<path d="M87.9988 173.282C89.4949 173.282 90.7076 172.069 90.7076 170.573C90.7076 169.077 89.4949 167.865 87.9988 167.865C86.5028 167.865 85.29 169.077 85.29 170.573C85.29 172.069 86.5028 173.282 87.9988 173.282Z" fill="url(#paint20_linear)"/>
<path d="M15.4639 172.679C16.627 172.679 17.57 171.737 17.57 170.573C17.57 169.41 16.627 168.467 15.4639 168.467C14.3007 168.467 13.3578 169.41 13.3578 170.573C13.3578 171.737 14.3007 172.679 15.4639 172.679Z" fill="#E6E6E6"/>
<path d="M87.9989 172.679C89.1621 172.679 90.105 171.737 90.105 170.573C90.105 169.41 89.1621 168.467 87.9989 168.467C86.8358 168.467 85.8928 169.41 85.8928 170.573C85.8928 171.737 86.8358 172.679 87.9989 172.679Z" fill="#E6E6E6"/>
<path d="M83.7867 192.843H25.6964V232.27H83.7867V192.843Z" fill="url(#paint21_linear)"/>
<path d="M83.333 193.297H26.1467V231.22H83.333V193.297Z" fill="#F39C12"/>
<path d="M73.1005 199.314H32.7698V202.927H73.1005V199.314Z" fill="white"/>
<path d="M68.7358 206.387H40.1444V210H68.7358V206.387Z" fill="white"/>
<path d="M71.1434 213.46H36.5316V217.073H71.1434V213.46Z" fill="white"/>
<path d="M73.5508 220.534H33.2201V224.147H73.5508V220.534Z" fill="white"/>
<path d="M249.122 206.028C247.971 204.71 247.117 203.161 246.616 201.484C246.115 199.808 245.98 198.044 246.219 196.311C246.459 194.577 247.067 192.916 248.004 191.438C248.94 189.96 250.183 188.7 251.648 187.744C250.89 186.571 250.487 185.203 250.49 183.806C250.444 182.099 251.026 180.436 252.125 179.129C253.224 177.823 254.764 176.966 256.453 176.718C258.142 176.471 259.863 176.852 261.29 177.789C262.717 178.726 263.751 180.153 264.196 181.801C265.106 180.24 266.409 178.943 267.974 178.039C269.54 177.136 271.314 176.657 273.122 176.651C278.878 176.651 283.544 181.426 283.544 187.31C283.546 188.565 283.331 189.81 282.907 190.991C283.117 190.991 283.331 190.957 283.544 190.957C288.166 190.957 291.911 194.787 291.911 199.514C291.911 199.805 291.911 200.093 291.867 200.377C293.748 201.22 295.343 202.592 296.458 204.325C297.574 206.058 298.162 208.078 298.151 210.139C298.151 216.007 293.499 220.764 287.763 220.764C287.16 220.763 286.558 220.709 285.965 220.602C285.995 220.94 286.016 221.313 286.016 221.675C286.016 228.261 280.798 233.597 274.358 233.597C271.977 233.598 269.656 232.856 267.718 231.474C266.157 232.842 264.152 233.597 262.077 233.597C257.269 233.597 253.368 229.608 253.368 224.688C253.368 224.475 253.368 224.265 253.398 224.055H253.368C248.218 224.055 244.043 219.786 244.043 214.517C244.035 212.773 244.504 211.061 245.399 209.565C246.295 208.069 247.582 206.846 249.122 206.028V206.028Z" fill="url(#paint22_linear)"/>
<path d="M250.469 205.974C249.388 204.737 248.585 203.282 248.115 201.708C247.644 200.134 247.517 198.478 247.742 196.85C247.966 195.223 248.538 193.663 249.417 192.275C250.297 190.887 251.464 189.705 252.84 188.807C252.128 187.707 251.75 186.423 251.753 185.113C251.711 183.512 252.258 181.951 253.29 180.726C254.321 179.5 255.766 178.696 257.351 178.464C258.936 178.232 260.551 178.589 261.89 179.467C263.23 180.346 264.201 181.684 264.62 183.23C265.474 181.764 266.696 180.547 268.165 179.699C269.634 178.851 271.3 178.401 272.997 178.395C278.414 178.395 282.779 182.875 282.779 188.401C282.78 189.578 282.577 190.746 282.179 191.854C282.379 191.854 282.576 191.824 282.779 191.824C287.116 191.824 290.631 195.42 290.631 199.856C290.631 200.13 290.631 200.401 290.59 200.665C292.356 201.456 293.853 202.744 294.9 204.37C295.947 205.997 296.499 207.893 296.489 209.827C296.489 215.336 292.124 219.799 286.737 219.799C286.169 219.799 285.603 219.748 285.044 219.647C285.074 219.985 285.091 220.324 285.091 220.663C285.091 226.842 280.192 231.853 274.148 231.853C271.914 231.854 269.736 231.156 267.918 229.859C266.454 231.143 264.575 231.851 262.629 231.853C258.115 231.853 254.455 228.112 254.455 223.493C254.455 223.293 254.455 223.097 254.485 222.901H254.455C249.62 222.901 245.702 218.892 245.702 213.948C245.694 212.31 246.134 210.702 246.974 209.296C247.814 207.891 249.023 206.742 250.469 205.974Z" fill="#00897B"/>
<path d="M270.271 193.202H267.728V256.422H270.271V193.202Z" fill="url(#paint23_linear)"/>
<path d="M269.55 194.089H268.27V256.422H269.55V194.089Z" fill="#795548"/>
<path d="M259.176 201.156L258.237 202.026L268.728 213.355L269.667 212.485L259.176 201.156Z" fill="#795548"/>
<path d="M279.694 214.034L268.816 222.114L269.579 223.141L280.458 215.062L279.694 214.034Z" fill="#795548"/>
<path d="M265.077 213.058C266.793 211.231 267.749 208.819 267.752 206.313C267.744 204.582 267.288 202.882 266.427 201.38C265.567 199.878 264.331 198.625 262.842 197.743C263.506 196.773 263.86 195.624 263.858 194.448C263.858 191.143 261.085 188.462 257.665 188.462C256.343 188.448 255.053 188.859 253.983 189.635C252.913 190.41 252.121 191.509 251.722 192.769C250.878 191.44 249.709 190.348 248.327 189.595C246.945 188.841 245.394 188.452 243.819 188.462C238.72 188.462 234.589 192.454 234.589 197.38C234.588 198.432 234.78 199.475 235.155 200.458C234.968 200.458 234.779 200.431 234.589 200.431C230.499 200.431 227.181 203.634 227.181 207.589C227.18 207.83 227.193 208.071 227.218 208.31C225.586 208.968 224.187 210.096 223.197 211.55C222.206 213.003 221.67 214.718 221.655 216.477C221.655 221.387 225.775 225.366 230.854 225.366C231.388 225.365 231.92 225.32 232.446 225.23C232.419 225.525 232.402 225.826 232.402 226.128C232.402 231.637 237.024 236.103 242.726 236.103C244.818 236.108 246.865 235.489 248.604 234.325C250.012 235.49 251.784 236.126 253.612 236.123C257.871 236.123 261.325 232.788 261.325 228.674C261.325 228.494 261.325 228.335 261.298 228.146H261.325C265.886 228.146 269.583 224.573 269.583 220.165C269.572 218.677 269.144 217.222 268.348 215.966C267.551 214.71 266.418 213.702 265.077 213.058V213.058Z" fill="url(#paint24_linear)"/>
<path d="M264.244 213.027C265.891 211.28 266.812 208.971 266.817 206.57C266.808 204.915 266.37 203.291 265.546 201.855C264.723 200.42 263.541 199.222 262.117 198.379C262.756 197.452 263.099 196.353 263.099 195.227C263.099 192.064 260.445 189.498 257.17 189.498C255.906 189.485 254.67 189.879 253.646 190.621C252.621 191.364 251.863 192.416 251.482 193.622C250.674 192.35 249.555 191.305 248.232 190.583C246.909 189.862 245.425 189.488 243.918 189.498C239.038 189.498 235.084 193.321 235.084 198.034C235.083 199.041 235.267 200.039 235.625 200.98C235.446 200.98 235.266 200.953 235.084 200.953C231.166 200.953 227.993 204.02 227.993 207.803C227.994 208.029 228.007 208.255 228.031 208.48C226.469 209.109 225.13 210.188 224.182 211.579C223.234 212.97 222.719 214.611 222.704 216.295C222.704 220.994 226.646 224.804 231.508 224.804C232.019 224.803 232.528 224.76 233.032 224.675C233.005 224.959 232.991 225.244 232.991 225.535C232.991 230.807 237.417 235.084 242.871 235.084C244.874 235.091 246.833 234.502 248.499 233.391C249.847 234.492 251.536 235.091 253.277 235.084C257.34 235.084 260.658 231.891 260.658 227.953C260.658 227.783 260.658 227.614 260.631 227.448H260.658C265.023 227.448 268.564 224.028 268.564 219.809C268.549 218.388 268.136 217 267.373 215.801C266.609 214.602 265.525 213.642 264.244 213.027Z" fill="#009688"/>
<path d="M248.99 203.042H246.098V256.104H248.99V203.042Z" fill="url(#paint25_linear)"/>
<path d="M248.292 203.042H246.694V256.104H248.292V203.042Z" fill="#795548"/>
<path d="M256.237 208.711L246.763 218.375L247.904 219.494L257.378 209.829L256.237 208.711Z" fill="#795548"/>
<path d="M237.969 219.698L237.051 221.006L246.873 227.9L247.791 226.591L237.969 219.698Z" fill="#795548"/>
</g>
<defs>
<linearGradient id="paint0_linear" x1="240.068" y1="80.4312" x2="260.045" y2="80.4312" gradientUnits="userSpaceOnUse">
<stop stop-color="#808080" stop-opacity="0.25"/>
<stop offset="0.54" stop-color="#808080" stop-opacity="0.12"/>
<stop offset="1" stop-color="#808080" stop-opacity="0.1"/>
</linearGradient>
<linearGradient id="paint1_linear" x1="44879.9" y1="76091.5" x2="44879.9" y2="21560" gradientUnits="userSpaceOnUse">
<stop stop-color="#808080" stop-opacity="0.25"/>
<stop offset="0.54" stop-color="#808080" stop-opacity="0.12"/>
<stop offset="1" stop-color="#808080" stop-opacity="0.1"/>
</linearGradient>
<linearGradient id="paint2_linear" x1="1312.13" y1="99721.2" x2="1312.13" y2="32516.1" gradientUnits="userSpaceOnUse">
<stop stop-color="#808080" stop-opacity="0.25"/>
<stop offset="0.54" stop-color="#808080" stop-opacity="0.12"/>
<stop offset="1" stop-color="#808080" stop-opacity="0.1"/>
</linearGradient>
<linearGradient id="paint3_linear" x1="60329.8" y1="65706.7" x2="60329.8" y2="27543.6" gradientUnits="userSpaceOnUse">
<stop stop-color="#808080" stop-opacity="0.25"/>
<stop offset="0.54" stop-color="#808080" stop-opacity="0.12"/>
<stop offset="1" stop-color="#808080" stop-opacity="0.1"/>
</linearGradient>
<linearGradient id="paint4_linear" x1="2576.94" y1="83447.1" x2="2576.94" y2="36104" gradientUnits="userSpaceOnUse">
<stop stop-color="#808080" stop-opacity="0.25"/>
<stop offset="0.54" stop-color="#808080" stop-opacity="0.12"/>
<stop offset="1" stop-color="#808080" stop-opacity="0.1"/>
</linearGradient>
<linearGradient id="paint5_linear" x1="132493" y1="101854" x2="132493" y2="52903" gradientUnits="userSpaceOnUse">
<stop stop-color="#808080" stop-opacity="0.25"/>
<stop offset="0.54" stop-color="#808080" stop-opacity="0.12"/>
<stop offset="1" stop-color="#808080" stop-opacity="0.1"/>
</linearGradient>
<linearGradient id="paint6_linear" x1="22335.7" y1="14819.7" x2="22335.7" y2="10209.9" gradientUnits="userSpaceOnUse">
<stop stop-color="#808080" stop-opacity="0.25"/>
<stop offset="0.54" stop-color="#808080" stop-opacity="0.12"/>
<stop offset="1" stop-color="#808080" stop-opacity="0.1"/>
</linearGradient>
<linearGradient id="paint7_linear" x1="14089.1" y1="18659.5" x2="14089.1" y2="15058.2" gradientUnits="userSpaceOnUse">
<stop stop-color="#808080" stop-opacity="0.25"/>
<stop offset="0.54" stop-color="#808080" stop-opacity="0.12"/>
<stop offset="1" stop-color="#808080" stop-opacity="0.1"/>
</linearGradient>
<linearGradient id="paint8_linear" x1="25365.1" y1="18659.5" x2="25365.1" y2="15058.2" gradientUnits="userSpaceOnUse">
<stop stop-color="#808080" stop-opacity="0.25"/>
<stop offset="0.54" stop-color="#808080" stop-opacity="0.12"/>
<stop offset="1" stop-color="#808080" stop-opacity="0.1"/>
</linearGradient>
<linearGradient id="paint9_linear" x1="123706" y1="48152.4" x2="123706" y2="11290" gradientUnits="userSpaceOnUse">
<stop stop-color="#808080" stop-opacity="0.25"/>
<stop offset="0.54" stop-color="#808080" stop-opacity="0.12"/>
<stop offset="1" stop-color="#808080" stop-opacity="0.1"/>
</linearGradient>
<linearGradient id="paint10_linear" x1="24091.8" y1="41992.2" x2="24091.8" y2="31927.2" gradientUnits="userSpaceOnUse">
<stop stop-color="#808080" stop-opacity="0.25"/>
<stop offset="0.54" stop-color="#808080" stop-opacity="0.12"/>
<stop offset="1" stop-color="#808080" stop-opacity="0.1"/>
</linearGradient>
<linearGradient id="paint11_linear" x1="5210.06" y1="5658.95" x2="5210.06" y2="5447.32" gradientUnits="userSpaceOnUse">
<stop stop-color="#808080" stop-opacity="0.25"/>
<stop offset="0.54" stop-color="#808080" stop-opacity="0.12"/>
<stop offset="1" stop-color="#808080" stop-opacity="0.1"/>
</linearGradient>
<linearGradient id="paint12_linear" x1="29118.2" y1="12790.9" x2="29118.2" y2="11944.4" gradientUnits="userSpaceOnUse">
<stop stop-color="#808080" stop-opacity="0.25"/>
<stop offset="0.54" stop-color="#808080" stop-opacity="0.12"/>
<stop offset="1" stop-color="#808080" stop-opacity="0.1"/>
</linearGradient>
<linearGradient id="paint13_linear" x1="25301.6" y1="45642.6" x2="25301.6" y2="34052.8" gradientUnits="userSpaceOnUse">
<stop stop-color="#808080" stop-opacity="0.25"/>
<stop offset="0.54" stop-color="#808080" stop-opacity="0.12"/>
<stop offset="1" stop-color="#808080" stop-opacity="0.1"/>
</linearGradient>
<linearGradient id="paint14_linear" x1="857.552" y1="51641.8" x2="857.552" y2="37362.1" gradientUnits="userSpaceOnUse">
<stop stop-color="#808080" stop-opacity="0.25"/>
<stop offset="0.54" stop-color="#808080" stop-opacity="0.12"/>
<stop offset="1" stop-color="#808080" stop-opacity="0.1"/>
</linearGradient>
<linearGradient id="paint15_linear" x1="26811.3" y1="38655.4" x2="26811.3" y2="30543.5" gradientUnits="userSpaceOnUse">
<stop stop-color="#808080" stop-opacity="0.25"/>
<stop offset="0.54" stop-color="#808080" stop-opacity="0.12"/>
<stop offset="1" stop-color="#808080" stop-opacity="0.1"/>
</linearGradient>
<linearGradient id="paint16_linear" x1="1207.39" y1="43322.5" x2="1207.39" y2="33262.8" gradientUnits="userSpaceOnUse">
<stop stop-color="#808080" stop-opacity="0.25"/>
<stop offset="0.54" stop-color="#808080" stop-opacity="0.12"/>
<stop offset="1" stop-color="#808080" stop-opacity="0.1"/>
</linearGradient>
<linearGradient id="paint17_linear" x1="701.71" y1="71094" x2="701.71" y2="44547.7" gradientUnits="userSpaceOnUse">
<stop stop-color="#808080" stop-opacity="0.25"/>
<stop offset="0.54" stop-color="#808080" stop-opacity="0.12"/>
<stop offset="1" stop-color="#808080" stop-opacity="0.1"/>
</linearGradient>
<linearGradient id="paint18_linear" x1="13542.3" y1="8913.64" x2="13542.3" y2="8104.48" gradientUnits="userSpaceOnUse">
<stop stop-color="#808080" stop-opacity="0.25"/>
<stop offset="0.54" stop-color="#808080" stop-opacity="0.12"/>
<stop offset="1" stop-color="#808080" stop-opacity="0.1"/>
</linearGradient>
<linearGradient id="paint19_linear" x1="260.177" y1="2940.38" x2="260.177" y2="2853.7" gradientUnits="userSpaceOnUse">
<stop stop-color="#808080" stop-opacity="0.25"/>
<stop offset="0.54" stop-color="#808080" stop-opacity="0.12"/>
<stop offset="1" stop-color="#808080" stop-opacity="0.1"/>
</linearGradient>
<linearGradient id="paint20_linear" x1="1493.27" y1="2940.38" x2="1493.27" y2="2853.7" gradientUnits="userSpaceOnUse">
<stop stop-color="#808080" stop-opacity="0.25"/>
<stop offset="0.54" stop-color="#808080" stop-opacity="0.12"/>
<stop offset="1" stop-color="#808080" stop-opacity="0.1"/>
</linearGradient>
<linearGradient id="paint21_linear" x1="4434.17" y1="24943.3" x2="14399.6" y2="24943.3" gradientUnits="userSpaceOnUse">
<stop stop-color="#808080" stop-opacity="0.25"/>
<stop offset="0.54" stop-color="#808080" stop-opacity="0.12"/>
<stop offset="1" stop-color="#808080" stop-opacity="0.1"/>
</linearGradient>
<linearGradient id="paint22_linear" x1="-26935.3" y1="42884.4" x2="-26935.3" y2="33305.6" gradientUnits="userSpaceOnUse">
<stop stop-color="#808080" stop-opacity="0.25"/>
<stop offset="0.54" stop-color="#808080" stop-opacity="0.12"/>
<stop offset="1" stop-color="#808080" stop-opacity="0.1"/>
</linearGradient>
<linearGradient id="paint23_linear" x1="-1115.5" y1="51842.7" x2="-1115.5" y2="40038.8" gradientUnits="userSpaceOnUse">
<stop stop-color="#808080" stop-opacity="0.25"/>
<stop offset="0.54" stop-color="#808080" stop-opacity="0.12"/>
<stop offset="1" stop-color="#808080" stop-opacity="0.1"/>
</linearGradient>
<linearGradient id="paint24_linear" x1="-27426.5" y1="36285.1" x2="-27426.5" y2="29578.6" gradientUnits="userSpaceOnUse">
<stop stop-color="#808080" stop-opacity="0.25"/>
<stop offset="0.54" stop-color="#808080" stop-opacity="0.12"/>
<stop offset="1" stop-color="#808080" stop-opacity="0.1"/>
</linearGradient>
<linearGradient id="paint25_linear" x1="-1453.81" y1="43500.5" x2="-1453.81" y2="35185.1" gradientUnits="userSpaceOnUse">
<stop stop-color="#808080" stop-opacity="0.25"/>
<stop offset="0.54" stop-color="#808080" stop-opacity="0.12"/>
<stop offset="1" stop-color="#808080" stop-opacity="0.1"/>
</linearGradient>
<clipPath id="clip0">
<rect width="300" height="256.422" fill="white"/>
</clipPath>
</defs>
</svg>
